# xmcd
#
# Track frame offsets:
#	150
#	11565
#	23615
#	36850
#	48343
#	58852
#	68222
#	80436
#	91242
#	100309
#	113073
#	123329
#	132267
#	141396
#	150950
#	161159
#	176205
#	187303
#	199291
#	212669
#
# Disc length: 2981 seconds
#
# Revision: 1
# Processed by: cddbd v1.5.2PL0 Copyright (c) Steve Scherf et al.
# Submitted via: audiograbber 1.83.01
#
DISCID=1d0ba314
DTITLE=James Carr - The Best of (Goldwax-Kent)
DYEAR=1966
DGENRE=R&B
TTITLE0=The Dark End of the Street
TTITLE1=These Arms of Mine
TTITLE2=Love Attack
TTITLE3=Life Turned Her That Way
TTITLE4=Freedom Train
TTITLE5=A Losing Game
TTITLE6=Pouring Water on a Drowning Man
TTITLE7=You've Got My Mind Messed Up
TTITLE8=You Hurt So Good
TTITLE9=A Man Needs a Woman
TTITLE10=Lover's Competition
TTITLE11=That's What I Want to Know
TTITLE12=I'm a Fool for You
TTITLE13=A Lucky Loser
TTITLE14=Your Love Made a U-Turn
TTITLE15=To Love Somebody
TTITLE16=I Don't Want to Be Hurt Anymore
TTITLE17=Let It Happen
TTITLE18=Forgetting You
TTITLE19=Let's Face Facts
EXTD=
EXTT0=
EXTT1=
EXTT2=
EXTT3=
EXTT4=
EXTT5=
EXTT6=
EXTT7=
EXTT8=
EXTT9=
EXTT10=
EXTT11=
EXTT12=
EXTT13=
EXTT14=
EXTT15=
EXTT16=
EXTT17=
EXTT18=
EXTT19=
PLAYORDER=
